<svg width="22" height="22" viewBox="0 0 22 22" fill="none" xmlns="http://www.w3.org/2000/svg">
<g clip-path="url(#clip0_7_223)">
<path d="M11.1059 10.192C13.9214 10.192 16.2005 7.90939 16.2005 5.09567C16.2005 2.28107 13.9214 0 11.1059 0C8.29167 0 6.01025 2.28124 6.01025 5.09567C6.01025 7.90957 8.29167 10.192 11.1059 10.192Z" fill="#3686C7"/>
<path d="M12.418 10.2052L11.1491 11.4834L9.91851 10.1918C9.91429 10.1928 9.90971 10.1928 9.9069 10.1939C9.70154 10.2432 8.82997 10.5205 7.69921 11.3315C7.68918 11.3386 7.45954 11.4978 7.35202 11.5652C7.13857 11.7 6.8199 11.8951 6.43435 12.0794C6.05109 12.2666 5.5971 12.4361 5.18392 12.5248C4.97998 12.5652 4.79574 12.5763 4.64775 12.5716C4.49484 12.5687 4.40685 12.5357 4.31359 12.4948C4.26344 12.4832 4.22631 12.4361 4.17141 12.41C4.12847 12.353 4.06635 12.3257 4.01972 12.2448C3.99474 12.2091 3.96605 12.1792 3.93931 12.1404L3.86698 12.0065C3.81103 11.927 3.77566 11.8084 3.73043 11.7063C3.68098 11.6081 3.65547 11.479 3.61869 11.3658C3.58033 11.2537 3.55464 11.1307 3.53229 11.0074C3.47563 10.7702 3.44906 10.5226 3.42143 10.2952C3.38747 10.0711 3.38958 9.846 3.37287 9.65613C3.37234 9.65068 3.37269 9.64593 3.37234 9.64047C3.48021 9.48597 3.62679 9.3466 3.80504 9.21727C3.98312 9.08934 4.12319 8.87642 4.2161 8.67283C4.57754 7.86988 4.73468 7.41008 4.99406 6.5679C5.10351 6.21315 4.44926 5.82057 4.02236 6.82464C3.84182 7.18836 3.92065 7.22567 3.73712 7.58798L3.67148 7.71134C3.67148 7.71134 3.63365 7.36151 3.62872 7.25576C3.57189 6.04334 3.51997 5.39296 3.46173 4.18055C3.44589 3.84427 3.30582 3.69452 3.04627 3.71247C2.79921 3.73025 2.69064 3.88246 2.70384 4.20923C2.73041 4.87104 2.76208 4.96994 2.78883 5.63122C2.80132 5.88057 2.63908 5.83324 2.64014 5.63017C2.5972 4.72816 2.5562 4.52896 2.51995 3.62678C2.50974 3.38183 2.40786 3.22117 2.15675 3.19425C1.91409 3.16856 1.74833 3.37004 1.76065 3.67675C1.79672 4.54867 1.83984 4.7176 1.87573 5.5897C1.8884 5.84766 1.72968 5.80702 1.72915 5.6131C1.69695 4.9219 1.67654 4.79186 1.62656 4.10189C1.61688 3.96288 1.53242 3.78022 1.42314 3.70737C1.15655 3.52982 0.865151 3.75611 0.877469 4.12424C0.90316 4.89621 0.944864 5.10561 0.976714 5.87688C0.995895 6.07484 0.840868 6.12798 0.832421 5.89746C0.808489 5.40634 0.790013 5.47708 0.76309 4.98648C0.750772 4.76282 0.623371 4.63507 0.398485 4.62645C0.171311 4.61818 0.0461976 4.75033 0.00924442 4.96396C-0.00659267 5.05141 0.00185377 5.14379 0.00590102 5.23336C0.0576355 6.39616 0.0887818 6.99814 0.174654 8.1583C0.205272 8.56461 0.254015 8.84826 0.320531 9.17627C0.387047 9.50427 0.570053 9.65895 0.613869 9.82137C0.603663 10.0093 0.591345 10.2067 0.598736 10.4332C0.602783 10.7341 0.604543 11.0593 0.646247 11.4213C0.660677 11.5993 0.679681 11.7841 0.71945 11.9812C0.757283 12.1772 0.780159 12.3717 0.846146 12.5844C0.907383 12.795 0.954543 13.0046 1.05379 13.2295C1.09936 13.3404 1.14529 13.4519 1.19157 13.5638C1.24647 13.677 1.31299 13.7914 1.37651 13.905C1.49248 14.1331 1.6783 14.3583 1.85022 14.5787C2.05469 14.7886 2.26057 15.0017 2.51608 15.1701C3.00668 15.5206 3.59212 15.7557 4.12847 15.8447C4.66746 15.9413 5.17231 15.942 5.62384 15.8989C5.74509 15.8854 5.89343 15.8694 6.00956 15.8516L6.01291 21.8078H16.5502V19.527C16.7827 20.1848 17.0017 20.9441 17.2092 21.8078H21.2744C20.0724 16.2319 16.9264 11.6915 12.418 10.2052ZM11.1607 21.5683H11.1381L9.90866 19.8865L11.1381 11.6727H11.1607L12.391 19.8865L11.1607 21.5683Z" fill="#3686C7"/>
</g>
<defs>
<clipPath id="clip0_7_223">
<rect width="22" height="22" rx="5" fill="white"/>
</clipPath>
</defs>
</svg>
