<svg width="22" height="22" viewBox="0 0 22 22" fill="none" xmlns="http://www.w3.org/2000/svg">
<g clip-path="url(#clip0_7_207)">
<path d="M19.9989 5.11155H17.6659V2.55634C17.6659 1.81993 17.0685 1.22304 16.3332 1.22304H5.66682C4.93041 1.22304 4.33352 1.81993 4.33352 2.55634V5.11155H2.00053C0.89507 5.11155 1.52588e-05 6.00716 1.52588e-05 7.1115V18.777C1.52588e-05 19.8814 0.89507 20.777 2.00053 20.777H20.0001C21.1044 20.777 22.0006 19.8819 22.0006 18.777V7.1115C21.9989 6.0066 21.1033 5.11155 19.9989 5.11155ZM6.99899 3.88907H14.9982V5.11098H6.99899V3.88907ZM13.8973 14.8362H12.4194V16.3158C12.4194 17.1 11.7831 17.7357 10.9983 17.7357C10.2141 17.7357 9.57952 17.0989 9.57952 16.3158V14.8362H8.10051C7.31516 14.8362 6.68058 14.201 6.68058 13.4168C6.68058 12.6326 7.31685 11.9974 8.10051 11.9974H9.57952V10.5184C9.57952 9.73421 10.2152 9.09851 10.9983 9.09851C11.7831 9.09851 12.4194 9.73365 12.4194 10.5184V11.9963H13.8973C14.6826 11.9963 15.3178 12.6326 15.3178 13.4163C15.3183 14.201 14.6832 14.8362 13.8973 14.8362Z" fill="#3686C7"/>
</g>
<defs>
<clipPath id="clip0_7_207">
<rect width="22" height="22" rx="5" fill="white"/>
</clipPath>
</defs>
</svg>
