<svg width="22" height="22" viewBox="0 0 22 22" fill="none" xmlns="http://www.w3.org/2000/svg">
<g clip-path="url(#clip0_7_221)">
<path d="M5.79227 22L4.78499 17.2331L0 16.1707L0.977749 14.2884L5.35907 14.0481C5.584 13.7546 6.08613 13.1097 6.39968 12.7948L10.3917 8.78616L2.0691 4.68854L4.17607 2.5728L14.7276 4.43148L18.4636 0.679895C18.9067 0.234997 19.5966 0 20.4585 0C21.0462 0 21.515 0.108753 21.5347 0.113316L21.7619 0.166551L21.8293 0.390902C22.1845 1.56969 21.971 2.89906 21.3219 3.55082L17.5684 7.3199L19.4118 17.872L17.3049 19.9877L13.2401 11.6639L9.51166 15.4087C9.11935 15.8019 8.28247 16.5768 7.97195 16.8628L7.64553 20.9885L5.79076 21.9992L5.79227 22ZM1.2042 15.6079L5.46813 16.554L6.35878 20.7703L6.87757 20.4873L7.19414 16.481L7.31153 16.373C7.32365 16.3623 8.47938 15.3014 8.94213 14.8368L13.4696 10.2897L17.5344 18.6135L18.5447 17.5982L16.7013 7.04535L20.7524 2.97815C21.1038 2.62528 21.3166 1.76286 21.1189 0.861656C20.9553 0.83732 20.7206 0.811463 20.46 0.811463C20.0109 0.811463 19.4005 0.888274 19.0354 1.25408L15.0025 5.30379L4.45024 3.4451L3.43916 4.45962L11.7618 8.55725L6.97072 13.3682C6.60492 13.7348 5.89679 14.6778 5.88922 14.6869L5.77637 14.8375L1.48064 15.0733L1.20344 15.6072L1.2042 15.6079Z" fill="#3686C7"/>
</g>
<defs>
<clipPath id="clip0_7_221">
<rect width="22" height="22" fill="white"/>
</clipPath>
</defs>
</svg>
