<svg width="22" height="22" viewBox="0 0 22 22" fill="none" xmlns="http://www.w3.org/2000/svg">
<path d="M0.980835 18.4525C1.27193 18.8414 1.64966 19.1571 2.08405 19.3746C2.51845 19.5921 2.99755 19.7053 3.48334 19.7053C3.96912 19.7053 4.44822 19.5921 4.88262 19.3746C5.31701 19.1571 5.69474 18.8414 5.98584 18.4525V18.4525C6.27693 18.8414 6.65466 19.1571 7.08905 19.3746C7.52345 19.5921 8.00255 19.7053 8.48834 19.7053C8.97412 19.7053 9.45322 19.5921 9.88762 19.3746C10.322 19.1571 10.6997 18.8414 10.9908 18.4525V18.4525C11.281 18.8413 11.6579 19.1571 12.0915 19.3745C12.5252 19.592 13.0036 19.7053 13.4888 19.7053C13.9739 19.7053 14.4523 19.592 14.886 19.3745C15.3196 19.1571 15.6965 18.8413 15.9867 18.4525V18.4525C16.2768 18.8413 16.6537 19.1571 17.0873 19.3745C17.521 19.592 17.9994 19.7053 18.4846 19.7053C18.9697 19.7053 19.4482 19.592 19.8818 19.3745C20.3155 19.1571 20.6924 18.8413 20.9825 18.4525V18.4525" stroke="#3686C7" stroke-miterlimit="10"/>
<path d="M11 10.1017C12.3821 10.1017 13.5025 8.98126 13.5025 7.59916C13.5025 6.21707 12.3821 5.09666 11 5.09666C9.6179 5.09666 8.4975 6.21707 8.4975 7.59916C8.4975 8.98126 9.6179 10.1017 11 10.1017Z" stroke="#3686C7" stroke-miterlimit="10"/>
<path d="M11 0.925827V2.59416" stroke="#3686C7" stroke-miterlimit="10"/>
<path d="M11 12.6042V14.2817" stroke="#3686C7" stroke-miterlimit="10"/>
<path d="M17.6825 7.59917H16.005" stroke="#3686C7" stroke-miterlimit="10"/>
<path d="M5.995 7.59917H4.3175" stroke="#3686C7" stroke-miterlimit="10"/>
<path d="M15.7208 2.87833L14.5383 4.06083" stroke="#3686C7" stroke-miterlimit="10"/>
<path d="M7.46168 11.1375L6.27917 12.32" stroke="#3686C7" stroke-miterlimit="10"/>
<path d="M15.7208 12.32L14.5383 11.1375" stroke="#3686C7" stroke-miterlimit="10"/>
<path d="M7.46168 4.06083L6.27917 2.87833" stroke="#3686C7" stroke-miterlimit="10"/>
</svg>
