<?xml version="1.0" encoding="utf-8"?><!-- Uploaded to: SVG Repo, www.svgrepo.com, Generator: SVG Repo Mixer Tools -->
<svg width="800px" height="800px" viewBox="-0.5 0 25 25" fill="none" xmlns="http://www.w3.org/2000/svg">
<path d="M8.96991 12.89C10.6599 12.89 12.0299 11.5558 12.0299 9.91C12.0299 8.2642 10.6599 6.93 8.96991 6.93C7.27992 6.93 5.90991 8.2642 5.90991 9.91C5.90991 11.5558 7.27992 12.89 8.96991 12.89Z" stroke="#0F0F0F" stroke-miterlimit="10" stroke-linecap="round" stroke-linejoin="round"/>
<path d="M12.93 13.1C14.37 14.18 15.32 15.84 15.42 17.72C15.43 17.91 15.27 18.07 15.08 18.07H2.84996C2.64996 18.07 2.48996 17.91 2.49996 17.72C2.60996 15.84 3.55997 14.18 5.00997 13.1" stroke="#0F0F0F" stroke-miterlimit="10" stroke-linecap="round" stroke-linejoin="round"/>
<path d="M11.03 12.11H11.02" stroke="#0F0F0F" stroke-miterlimit="10" stroke-linecap="round" stroke-linejoin="round"/>
<path d="M17.1299 14.56C18.2787 14.56 19.2099 13.6556 19.2099 12.54C19.2099 11.4244 18.2787 10.52 17.1299 10.52C15.9812 10.52 15.0499 11.4244 15.0499 12.54C15.0499 13.6556 15.9812 14.56 17.1299 14.56Z" stroke="#0F0F0F" stroke-miterlimit="10" stroke-linecap="round" stroke-linejoin="round"/>
<path d="M20.3 15.13C20.99 15.84 21.44 16.79 21.5 17.83C21.51 17.97 21.4 18.07 21.26 18.07H17.38" stroke="#0F0F0F" stroke-miterlimit="10" stroke-linecap="round" stroke-linejoin="round"/>
</svg>