<svg width="22" height="22" viewBox="0 0 22 22" fill="none" xmlns="http://www.w3.org/2000/svg">
<path d="M8.33352 11.3432C9.82071 11.3432 11.0263 10.1691 11.0263 8.7208C11.0263 7.2725 9.82071 6.0984 8.33352 6.0984C6.84633 6.0984 5.64072 7.2725 5.64072 8.7208C5.64072 10.1691 6.84633 11.3432 8.33352 11.3432Z" stroke="#3686C7" stroke-miterlimit="10" stroke-linecap="round" stroke-linejoin="round"/>
<path d="M11.8184 11.528C13.0856 12.4784 13.9216 13.9392 14.0096 15.5936C14.0184 15.7608 13.8776 15.9016 13.7104 15.9016H2.94796C2.77196 15.9016 2.63116 15.7608 2.63996 15.5936C2.73676 13.9392 3.57277 12.4784 4.84877 11.528" stroke="#3686C7" stroke-miterlimit="10" stroke-linecap="round" stroke-linejoin="round"/>
<path d="M10.1441 10.6568H10.1376" stroke="#3686C7" stroke-miterlimit="10" stroke-linecap="round" stroke-linejoin="round"/>
<path d="M15.5143 12.8128C16.5253 12.8128 17.3447 12.0169 17.3447 11.0352C17.3447 10.0535 16.5253 9.2576 15.5143 9.2576C14.5035 9.2576 13.6839 10.0535 13.6839 11.0352C13.6839 12.0169 14.5035 12.8128 15.5143 12.8128Z" stroke="#3686C7" stroke-miterlimit="10" stroke-linecap="round" stroke-linejoin="round"/>
<path d="M18.304 13.3144C18.9112 13.9392 19.3072 14.7752 19.36 15.6904C19.3688 15.8136 19.272 15.9016 19.1488 15.9016H15.7344" stroke="#3686C7" stroke-miterlimit="10" stroke-linecap="round" stroke-linejoin="round"/>
</svg>
